<svg width="28" height="20" viewBox="0 0 28 20" fill="none" xmlns="http://www.w3.org/2000/svg">
<path d="M23.1905 1.7341L3.86027 17.9341C3.50458 18.2322 3.45818 18.7625 3.75659 19.1177C4.05505 19.4729 4.58593 19.5192 4.94157 19.2212L24.2718 3.02116C24.6275 2.72307 24.6739 2.19284 24.3755 1.83764C24.0771 1.48234 23.5462 1.436 23.1905 1.7341Z" fill="black"/>
<path d="M3.64474 2.94409L22.9778 19.1465C23.3335 19.4447 23.8641 19.3986 24.1622 19.0439C24.4602 18.6891 24.4134 18.1592 24.0577 17.8611L4.72462 1.65872C4.36893 1.36063 3.83833 1.40655 3.54026 1.76134C3.24219 2.11612 3.28905 2.646 3.64474 2.94409Z" fill="black"/>
</svg>
